#N canvas 963 23 951 1016 10;
#X declare -lib pd-neimog;
#X obj 11 11 declare -lib pd-neimog;
#X msg 27 56 reload;
#X msg 35 79 setpath /home/neimog/Nextcloud/MusicData/Samples/Orchidea/;
#X msg 64 355 inst Flute;
#X obj 27 407 l.orchidea;
#X msg 47 104 note C4;
#X obj 62 294 else/midi2note;
#X obj 27 451 readsf~;
#X obj 27 473 dac~;
#X msg 27 429 open \$1 \, 1;
#X msg 62 316 note \$1 f;
#X obj 62 135 else/keyboard 17 80 1 4 0 0 empty empty;
#X msg 107 229 sharp;
#X obj 62 220 change;
#X obj 238 198 expr random(60 \, 72);
#X obj 238 176 metro 200;
#X obj 238 149 tgl 18 0 empty empty empty 0 -9 0 10 #fcfcfc #000000 #000000 0 1;
#X msg 75 381 tech tongue_ram;
#X obj 281 235 expr random(100 \, 400);
#X connect 1 0 4 0;
#X connect 2 0 4 0;
#X connect 3 0 4 0;
#X connect 4 0 9 0;
#X connect 5 0 4 0;
#X connect 6 0 10 0;
#X connect 7 0 8 0;
#X connect 7 0 8 1;
#X connect 9 0 7 0;
#X connect 10 0 4 0;
#X connect 11 0 13 0;
#X connect 12 0 6 0;
#X connect 13 0 6 0;
#X connect 14 0 6 0;
#X connect 14 0 18 0;
#X connect 15 0 14 0;
#X connect 16 0 15 0;
#X connect 17 0 4 0;
#X connect 18 0 15 1;
